<svg width="1160.338818359375px" height="336.83746337890625px" xmlns="http://www.w3.org/2000/svg" viewBox="-330.1694091796875 -93.41873168945312 1160.338818359375 336.83746337890625" style="background: rgba(0, 0, 0, 0);" preserveAspectRatio="xMidYMid"><defs><filter id="editing-jagged" x="-100%" y="-100%" width="300%" height="300%"><feTurbulence result="turb" baseFrequency="0.1" numOctaves="1" seed="1"></feTurbulence><feDisplacementMap in="SourceGraphic" in2="turb" scale="20"></feDisplacementMap></filter></defs><g filter="url(#editing-jagged)"><g transform="translate(-169.16718137264252, 145.0999984741211)"><path d="M81.60-133.40L81.60-133.40L81.60-133.40Q130.60-133.40 130.60-98.80L130.60-98.80L130.60-98.80Q130.60-79.80 118.40-68.40L118.40-68.40L118.40-68.40Q106.40-57 85.40-57L85.40-57L85.40-57Q75.60-57 68-62.60L68-62.60L68-62.60Q64.40-65 62-68.20L62-68.20L62-68.20Q76.60-68.20 84.30-77.10L84.30-77.10L84.30-77.10Q92-86 92-103.40L92-103.40L92-103.40Q92-120.80 74.80-120.80L74.80-120.80L70-120.80L70-120.80Q68.80-120.80 67.80-120.60L67.80-120.60L44.80 0L1.40 0L26-131L26-131Q47.40-133 59.80-133.20L59.80-133.20L59.80-133.20Q72.20-133.40 81.60-133.40ZM175.80-48.80L175.80-48.80L175.80-48.80Q175.80-86.60 195.40-110.40L195.40-110.40L195.40-110.40Q216.20-136.20 252.40-136.20L252.40-136.20L252.40-136.20Q278.60-136.20 291.80-123.50L291.80-123.50L291.80-123.50Q305-110.80 305-84L305-84L305-84Q305-43.20 284.20-19.40L284.20-19.40L284.20-19.40Q263.60 4 229.00 4L229.00 4L229.00 4Q202.00 4 188.90-9.50L188.90-9.50L188.90-9.50Q175.80-23 175.80-48.80ZM228.40-90.20L228.40-90.20L228.40-90.20Q219.40-54.20 219.40-25.80L219.40-25.80L219.40-25.80Q219.40-19 221.70-14.60L221.70-14.60L221.70-14.60Q224.00-10.20 230.10-10.20L230.10-10.20L230.10-10.20Q236.20-10.20 240.00-13.10L240.00-13.10L240.00-13.10Q243.80-16 246.80-22.60L246.80-22.60L246.80-22.60Q251.60-33.40 256.10-56.30L256.10-56.30L256.10-56.30Q260.60-79.20 261.00-88.70L261.00-88.70L261.00-88.70Q261.40-98.20 261.40-105.40L261.40-105.40L261.40-105.40Q261.40-112.60 259.20-117.20L259.20-117.20L259.20-117.20Q257.00-121.80 251.10-121.80L251.10-121.80L251.10-121.80Q245.20-121.80 241.20-118.20L241.20-118.20L241.20-118.20Q233.80-111.40 228.40-90.20ZM439.60-30.80L439.60-30.80L439.60-30.80Q443.40-26 443.40-16.70L443.40-16.70L443.40-16.70Q443.40-7.40 436.30-1.70L436.30-1.70L436.30-1.70Q429.20 4 416.80 4L416.80 4L416.80 4Q409.60 4 398.40 2.40L398.40 2.40L398.40 2.40Q376.40-1 370.10-1L370.10-1L370.10-1Q363.80-1 361.20-0.70L361.20-0.70L361.20-0.70Q358.60-0.40 354.40 0L354.40 0L378.60-132L422.40-132L402.40-22L402.40-22Q405-21.60 407.40-21.60L407.40-21.60L412.40-21.60L412.40-21.60Q429.20-21.60 439.60-30.80ZM539.40 0L495.80 0L521.20-132L565.20-132L539.40 0ZM688.80-92.40L688.80-92.40L688.80-92.40Q691.80-98.40 691.80-104L691.80-104L691.80-104Q691.80-109.60 691.20-112.70L691.20-112.70L691.20-112.70Q690.60-115.80 689.20-118.20L689.20-118.20L689.20-118.20Q686.20-123.40 680.20-123.40L680.20-123.40L680.20-123.40Q672.80-123.40 666.80-118L666.80-118L666.80-118Q660.40-112.40 660.40-103.60L660.40-103.60L660.40-103.60Q660.40-98 664.30-93.70L664.30-93.70L664.30-93.70Q668.20-89.40 674.20-85.40L674.20-85.40L674.20-85.40Q680.20-81.40 687.00-77.40L687.00-77.40L687.00-77.40Q693.80-73.40 699.80-68.60L699.80-68.60L699.80-68.60Q713.60-57.60 713.60-42.80L713.60-42.80L713.60-42.80Q713.60-32.80 708.30-24.30L708.30-24.30L708.30-24.30Q703.00-15.80 694.20-9.60L694.20-9.60L694.20-9.60Q675.00 4 649.60 4L649.60 4L649.60 4Q629.00 4 618.40-2.70L618.40-2.70L618.40-2.70Q607.80-9.40 607.80-19.60L607.80-19.60L607.80-19.60Q607.80-37.80 622.00-42.40L622.00-42.40L622.00-42.40Q626.00-43.80 632.10-43.80L632.10-43.80L632.10-43.80Q638.20-43.80 645.20-41.20L645.20-41.20L645.20-41.20Q642.00-33 642.00-25.60L642.00-25.60L642.00-25.60Q642.00-9.60 653.40-9.60L653.40-9.60L653.40-9.60Q660.80-9.60 666.90-15L666.90-15L666.90-15Q673.00-20.40 673.00-26.50L673.00-26.50L673.00-26.50Q673.00-32.60 669.10-37L669.10-37L669.10-37Q665.20-41.40 659.40-44.90L659.40-44.90L659.40-44.90Q653.60-48.40 646.90-51.80L646.90-51.80L646.90-51.80Q640.20-55.20 634.40-60L634.40-60L634.40-60Q620.80-71 620.80-88.60L620.80-88.60L620.80-88.60Q620.80-100 626.40-108.90L626.40-108.90L626.40-108.90Q632.00-117.80 641.00-123.80L641.00-123.80L641.00-123.80Q659.00-136 681.10-136L681.10-136L681.10-136Q703.20-136 713.90-129.40L713.90-129.40L713.90-129.40Q724.60-122.80 724.60-111.60L724.60-111.60L724.60-111.60Q724.60-101.80 717.00-95.60L717.00-95.60L717.00-95.60Q710.40-90.40 702.40-90.40L702.40-90.40L702.40-90.40Q694.40-90.40 688.80-92.40ZM811.40 0L767.80 0L793.20-132L837.20-132L811.40 0Z" fill="#444"></path></g></g><style>text {
  font-size: 64px;
  font-family: Arial Black;
  dominant-baseline: central;
  text-anchor: middle;
}</style></svg>