<svg width="254.8337890625px" height="120.81002502441406px" xmlns="http://www.w3.org/2000/svg" viewBox="122.58310546875 14.59498748779297 254.8337890625 120.81002502441406" style="background: rgba(0, 0, 0, 0);" preserveAspectRatio="xMidYMid"><defs><filter id="editing-jagged" x="-100%" y="-100%" width="300%" height="300%"><feTurbulence result="turb" baseFrequency="0.1" numOctaves="1" seed="1"></feTurbulence><feDisplacementMap in="SourceGraphic" in2="turb" scale="10"></feDisplacementMap></filter></defs><g filter="url(#editing-jagged)"><g transform="translate(163.8253143131733, 99)"><path d="M26.11-42.69L26.11-42.69L26.11-42.69Q41.79-42.69 41.79-31.62L41.79-31.62L41.79-31.62Q41.79-25.54 37.89-21.89L37.89-21.89L37.89-21.89Q34.05-18.24 27.33-18.24L27.33-18.24L27.33-18.24Q24.19-18.24 21.76-20.03L21.76-20.03L21.76-20.03Q20.61-20.80 19.84-21.82L19.84-21.82L19.84-21.82Q24.51-21.82 26.98-24.67L26.98-24.67L26.98-24.67Q29.44-27.52 29.44-33.09L29.44-33.09L29.44-33.09Q29.44-38.66 23.94-38.66L23.94-38.66L22.40-38.66L22.40-38.66Q22.02-38.66 21.70-38.59L21.70-38.59L14.34 0L0.45 0L8.32-41.92L8.32-41.92Q15.17-42.56 19.14-42.62L19.14-42.62L19.14-42.62Q23.10-42.69 26.11-42.69ZM56.06 1.28L56.06 1.28L56.06 1.28Q41.98 1.28 41.98-11.97L41.98-11.97L41.98-11.97Q41.98-21.38 47.17-27.46L47.17-27.46L47.17-27.46Q52.67-33.92 62.21-33.92L62.21-33.92L62.21-33.92Q69.12-33.92 72.64-30.72L72.64-30.72L72.64-30.72Q76.16-27.52 76.16-20.80L76.16-20.80L76.16-20.80Q76.16-10.56 70.66-4.61L70.66-4.61L70.66-4.61Q65.28 1.28 56.06 1.28ZM57.73-26.56L57.73-26.56L57.73-26.56Q56.96-24.83 56.35-22.24L56.35-22.24L56.35-22.24Q55.74-19.65 54.98-15.55L54.98-15.55L54.98-15.55Q54.21-11.46 54.21-6.40L54.21-6.40L54.21-6.40Q54.21-4.74 54.75-3.65L54.75-3.65L54.75-3.65Q55.30-2.56 56.77-2.56L56.77-2.56L56.77-2.56Q58.24-2.56 59.17-3.26L59.17-3.26L59.17-3.26Q60.10-3.97 60.80-5.63L60.80-5.63L60.80-5.63Q62.08-8.58 63.10-14.05L63.10-14.05L63.10-14.05Q64.13-19.52 64.22-21.89L64.22-21.89L64.22-21.89Q64.32-24.26 64.32-26.02L64.32-26.02L64.32-26.02Q64.32-27.78 63.81-28.93L63.81-28.93L63.81-28.93Q63.30-30.08 61.86-30.08L61.86-30.08L61.86-30.08Q60.42-30.08 59.46-29.18L59.46-29.18L59.46-29.18Q58.50-28.29 57.73-26.56ZM95.23-3.52L95.23-3.52L95.23-3.52Q93.25 1.28 86.91 1.28L86.91 1.28L86.91 1.28Q83.71 1.28 81.66-0.96L81.66-0.96L81.66-0.96Q80-2.82 80-4.93L80-4.93L80-4.93Q80-9.73 82.24-20.22L82.24-20.22L86.91-44.80L99.90-46.08L93.70-13.70L93.70-13.70Q92.61-8.96 92.61-7.30L92.61-7.30L92.61-7.30Q92.61-3.65 95.23-3.52ZM116.03-3.52L116.03-3.52L116.03-3.52Q114.05 1.28 107.71 1.28L107.71 1.28L107.71 1.28Q104.45 1.28 102.40-0.96L102.40-0.96L102.40-0.96Q100.67-2.94 100.67-4.93L100.67-4.93L100.67-4.93Q100.67-10.11 103.04-20.22L103.04-20.22L105.41-32.64L118.40-33.92L114.50-13.70L114.50-13.70Q113.41-8.96 113.41-7.30L113.41-7.30L113.41-7.30Q113.41-3.65 116.03-3.52ZM106.56-41.54L106.56-41.54L106.56-41.54Q106.56-44.03 108.64-45.38L108.64-45.38L108.64-45.38Q110.72-46.72 113.73-46.72L113.73-46.72L113.73-46.72Q116.74-46.72 118.56-45.38L118.56-45.38L118.56-45.38Q120.38-44.03 120.38-41.54L120.38-41.54L120.38-41.54Q120.38-39.04 118.37-37.76L118.37-37.76L118.37-37.76Q116.35-36.48 113.34-36.48L113.34-36.48L113.34-36.48Q110.34-36.48 108.45-37.76L108.45-37.76L108.45-37.76Q106.56-39.04 106.56-41.54ZM140.61-22.46L140.61-22.46L140.61-22.46Q141.50-24.83 141.50-26.88L141.50-26.88L141.50-26.88Q141.50-30.66 138.43-30.66L138.43-30.66L138.43-30.66Q136.83-30.66 135.52-29.22L135.52-29.22L135.52-29.22Q134.21-27.78 134.21-25.98L134.21-25.98L134.21-25.98Q134.21-24.70 135.23-23.68L135.23-23.68L135.23-23.68Q136.70-22.27 140.48-19.97L140.48-19.97L140.48-19.97Q144.26-17.66 145.70-15.78L145.70-15.78L145.70-15.78Q147.14-13.89 147.14-11.30L147.14-11.30L147.14-11.30Q147.14-8.70 145.89-6.34L145.89-6.34L145.89-6.34Q144.64-3.97 142.40-2.30L142.40-2.30L142.40-2.30Q137.60 1.28 129.92 1.28L129.92 1.28L129.92 1.28Q125.76 1.28 122.56-0.90L122.56-0.90L122.56-0.90Q119.36-3.01 119.36-5.50L119.36-5.50L119.36-5.50Q119.36-8 121.18-9.47L121.18-9.47L121.18-9.47Q123.01-10.94 125.70-10.94L125.70-10.94L125.70-10.94Q128.38-10.94 130.05-9.92L130.05-9.92L130.05-9.92Q129.22-7.81 129.22-6.40L129.22-6.40L129.22-6.40Q129.22-2.18 132.80-2.18L132.80-2.18L132.80-2.18Q134.34-2.18 135.36-3.14L135.36-3.14L135.36-3.14Q136.38-4.10 136.38-5.76L136.38-5.76L136.38-5.76Q136.38-9.02 130.88-12.48L130.88-12.48L130.88-12.48Q126.40-15.42 125.38-16.58L125.38-16.58L125.38-16.58Q123.65-18.62 123.65-21.18L123.65-21.18L123.65-21.18Q123.65-23.74 124.86-26.18L124.86-26.18L124.86-26.18Q126.08-28.61 128.32-30.34L128.32-30.34L128.32-30.34Q132.99-33.92 141.12-33.92L141.12-33.92L141.12-33.92Q145.28-33.92 147.74-32.26L147.74-32.26L147.74-32.26Q150.21-30.59 150.21-27.78L150.21-27.78L150.21-27.78Q150.21-24.96 148.51-23.36L148.51-23.36L148.51-23.36Q146.82-21.76 143.74-21.76L143.74-21.76L143.74-21.76Q141.63-21.76 140.61-22.46ZM167.94-3.52L167.94-3.52L167.94-3.52Q165.95 1.28 159.62 1.28L159.62 1.28L159.62 1.28Q156.35 1.28 154.30-0.96L154.30-0.96L154.30-0.96Q152.58-2.94 152.58-4.93L152.58-4.93L152.58-4.93Q152.58-10.11 154.94-20.22L154.94-20.22L157.31-32.64L170.30-33.92L166.40-13.70L166.40-13.70Q165.31-8.96 165.31-7.30L165.31-7.30L165.31-7.30Q165.31-3.65 167.94-3.52ZM158.46-41.54L158.46-41.54L158.46-41.54Q158.46-44.03 160.54-45.38L160.54-45.38L160.54-45.38Q162.62-46.72 165.63-46.72L165.63-46.72L165.63-46.72Q168.64-46.72 170.46-45.38L170.46-45.38L170.46-45.38Q172.29-44.03 172.29-41.54L172.29-41.54L172.29-41.54Q172.29-39.04 170.27-37.76L170.27-37.76L170.27-37.76Q168.26-36.48 165.25-36.48L165.25-36.48L165.25-36.48Q162.24-36.48 160.35-37.76L160.35-37.76L160.35-37.76Q158.46-39.04 158.46-41.54Z" fill="#444"></path></g></g><style>text {
  font-size: 64px;
  font-family: Arial Black;
  dominant-baseline: central;
  text-anchor: middle;
}</style></svg>